<?xml version="1.0" encoding="UTF-8"?>
<svg version="1.1" xmlns="http://www.w3.org/2000/svg" width="1050" height="236">
<path d="M0 0 C0.82991578 1.82080518 0.82991578 1.82080518 1.54627496 4.17224532 C3.71529519 9.98417058 6.12545831 15.00243652 11 19 C20.40159274 22.51455617 31.40967206 21.54722117 41.30953084 21.35799687 C45.56724846 21.2976988 49.82391335 21.34811684 54.08170491 21.38436824 C61.54062495 21.43268692 68.9967511 21.41062989 76.45547676 21.34227943 C87.54564337 21.24097095 98.63386677 21.24874402 109.72435985 21.27878098 C128.38018194 21.32622229 147.03483306 21.28533115 165.69045067 21.194067 C184.16126186 21.10399569 202.63149357 21.05320362 221.10253334 21.05484962 C222.25105868 21.05492992 223.39958403 21.05501021 224.58291317 21.05509294 C230.41571205 21.05570503 236.24851055 21.05701869 242.08130924 21.05860243 C283.39342527 21.06855773 324.70495249 20.99047579 366.0168457 20.8605957 C406.15032544 20.73462195 446.28356687 20.64854095 486.41723633 20.61645508 C488.27292467 20.61494767 488.27292467 20.61494767 490.16610167 20.6134098 C502.58984387 20.6033618 515.01358657 20.59412469 527.43732983 20.58548168 C552.74584746 20.56785646 578.05435922 20.54481907 603.36286926 20.51850891 C604.52650939 20.51730589 605.69014952 20.51610287 606.88905147 20.5148634 C684.59288188 20.43390951 762.29647453 20.22639822 840 20 C840 25.28 840 30.56 840 36 C759.93844455 36.52334384 679.87672578 37.01672878 599.81410217 37.34458923 C598.62917402 37.3494504 597.44424586 37.35431156 596.2234108 37.35932003 C570.47179751 37.46477972 544.72016543 37.56466753 518.96850836 37.65881551 C506.33992287 37.70501949 493.71134214 37.75245475 481.08276367 37.80053711 C479.82606751 37.80530093 478.56937135 37.81006475 477.27459348 37.81497292 C436.54037087 37.96996324 395.80711297 38.206257 355.07356295 38.48471187 C313.21484842 38.77042896 271.35651691 38.97412579 229.49692832 39.07461085 C223.58475282 39.08884145 217.67258007 39.10400976 211.7604084 39.11974907 C210.59680704 39.12281779 209.43320568 39.12588652 208.23434368 39.12904824 C189.50224981 39.18086141 170.77174407 39.31914171 152.04039712 39.48975819 C133.20925361 39.65943841 114.37947451 39.73802447 95.54755645 39.72370423 C84.35736413 39.7179617 73.17264321 39.78197373 61.98362596 39.9461005 C54.50589822 40.04890079 47.03158372 40.06052764 39.55341576 39.99861489 C35.29151796 39.96592442 31.03983088 39.97229409 26.77921032 40.09012473 C2.2140135 40.73311736 2.2140135 40.73311736 -4.85673492 34.46927087 C-11.07992859 26.81206016 -15.85816279 17.67795917 -18 8 C-15.56969216 6.46648472 -13.13194897 4.94816498 -10.6875 3.4375 C-9.65206055 2.78104492 -9.65206055 2.78104492 -8.59570312 2.11132812 C-7.92861328 1.70205078 -7.26152344 1.29277344 -6.57421875 0.87109375 C-5.96151123 0.48880615 -5.34880371 0.10651855 -4.7175293 -0.28735352 C-3 -1 -3 -1 0 0 Z " fill="#FFFFFF" transform="translate(177,173)"/>
<path d="M0 0 C7.59 0 15.18 0 23 0 C24.83451198 3.05751997 26.41872352 5.72329001 27.83764648 8.91308594 C28.16486191 9.64444763 28.49207733 10.37580933 28.82920837 11.1293335 C29.17303055 11.90649719 29.51685272 12.68366089 29.87109375 13.484375 C30.23469498 14.29940491 30.5982962 15.11443481 30.97291565 15.9541626 C32.13078134 18.55144931 33.28420324 21.15068177 34.4375 23.75 C35.20869169 25.48190119 35.98017326 27.21367333 36.75195312 28.9453125 C38.83830317 33.62858483 40.91963008 38.3140681 43 43 C44.32 45.97 45.64 48.94 47 52 C47.33 34.84 47.66 17.68 48 0 C54.93 0 61.86 0 69 0 C69 33.99 69 67.98 69 103 C61.41 103 53.82 103 46 103 C40.13197177 91.47540402 34.70537094 79.8363887 29.5 68 C27.025 62.39 24.55 56.78 22 51 C21.67 68.16 21.34 85.32 21 103 C14.07 103 7.14 103 0 103 C0 69.01 0 35.02 0 0 Z " fill="#FFFFFF" transform="translate(415,61)"/>
<path d="M0 0 C7.59 0 15.18 0 23 0 C25.79381138 6.2803244 28.58733405 12.56077559 31.38012695 18.84155273 C32.32950241 20.97639344 33.27904471 23.11115996 34.22875977 25.24584961 C35.59696032 28.32125485 36.96455278 31.39692988 38.33203125 34.47265625 C38.96501884 35.89494286 38.96501884 35.89494286 39.61079407 37.34596252 C41.77545042 42.21633717 43.91474647 47.09508258 46 52 C46.89933208 45.89897014 47.11955147 40.00869562 47.0625 33.84765625 C47.05871338 32.90691757 47.05492676 31.96617889 47.05102539 30.99693298 C47.03889218 28.01874013 47.02024148 25.04064808 47 22.0625 C46.97350632 18.1158884 46.95349986 14.16932268 46.9375 10.22265625 C46.92920166 9.31234146 46.92090332 8.40202667 46.91235352 7.46412659 C46.90382882 5.30923653 46.94652161 3.15424323 47 1 C47.33 0.67 47.66 0.34 48 0 C54.6 0 61.2 0 68 0 C68 33.99 68 67.98 68 103 C60.41 103 52.82 103 45 103 C39.21132278 91.73014502 34.08222705 80.2550571 29.0625 68.625 C26.401875 62.47875 23.74125 56.3325 21 50 C20.67 67.49 20.34 84.98 20 103 C13.4 103 6.8 103 0 103 C0 69.01 0 35.02 0 0 Z " fill="#FFFFFF" transform="translate(212,61)"/>
<path d="M0 0 C16.5 0 33 0 50 0 C65.28301791 15.28301791 65.28301791 15.28301791 65.53649902 25.19592285 C65.48384888 25.84734253 65.43119873 26.49876221 65.37695312 27.16992188 C65.32547119 27.91169678 65.27398926 28.65347168 65.22094727 29.41772461 C65.16865967 30.16675049 65.11637207 30.91577637 65.0625 31.6875 C65.01785363 33.23616094 64.97941007 34.78501351 64.94726562 36.33398438 C64.58687793 47.26032107 64.58687793 47.26032107 62.45092773 49.95239258 C61.73271851 50.47095825 61.73271851 50.47095825 61 51 C62.22007944 53.6905528 62.22007944 53.6905528 64 56 C64.09304018 57.47354348 64.11746265 58.95150591 64.11352539 60.42797852 C64.11341209 61.83932823 64.11341209 61.83932823 64.11329651 63.27919006 C64.10813522 64.30209641 64.10297394 65.32500275 64.09765625 66.37890625 C64.0962413 67.42070541 64.09482635 68.46250458 64.09336853 69.53587341 C64.0877508 72.87811094 64.0751953 76.22028257 64.0625 79.5625 C64.05748728 81.82226466 64.05292398 84.08203037 64.04882812 86.34179688 C64.03777561 91.89455682 64.0204991 97.44726722 64 103 C57.4 103 50.8 103 44 103 C44 90.13 44 77.26 44 64 C36.41 64 28.82 64 21 64 C21 76.87 21 89.74 21 103 C14.07 103 7.14 103 0 103 C0 69.01 0 35.02 0 0 Z M21 21 C21 28.59 21 36.18 21 44 C28.59 44 36.18 44 44 44 C44 36.41 44 28.82 44 21 C36.41 21 28.82 21 21 21 Z " fill="#FFFFFF" transform="translate(786,61)"/>
<path d="M0 0 C16.17 0 32.34 0 49 0 C64 15 64 15 65.5703125 23.359375 C65.4989463 26.19287746 65.35355292 28.93443641 65.125 31.75 C65.07529213 33.19770098 65.03229629 34.64564836 64.99609375 36.09375 C64.60463264 46.30602301 64.60463264 46.30602301 62.43701172 48.79394531 C61.96279785 49.19194336 61.48858398 49.58994141 61 50 C61.27036147 52.97397616 61.85446026 53.85446026 64 56 C64.24050903 58.02481079 64.24050903 58.02481079 64.22705078 60.54150391 C64.22689972 61.48232819 64.22674866 62.42315247 64.22659302 63.39248657 C64.21627045 64.41023163 64.20594788 65.42797668 64.1953125 66.4765625 C64.1924826 67.51694672 64.18965271 68.55733093 64.18673706 69.62924194 C64.17551704 72.96127694 64.15040915 76.29304586 64.125 79.625 C64.11497256 81.88020446 64.1058463 84.13541312 64.09765625 86.390625 C64.07727096 91.92726901 64.03812546 97.4633357 64 103 C57.07 103 50.14 103 43 103 C43 90.13 43 77.26 43 64 C35.41 64 27.82 64 20 64 C20 76.87 20 89.74 20 103 C13.4 103 6.8 103 0 103 C0 69.01 0 35.02 0 0 Z M20 21 C20 28.59 20 36.18 20 44 C27.59 44 35.18 44 43 44 C43 36.41 43 28.82 43 21 C35.41 21 27.82 21 20 21 Z " fill="#FFFFFF" transform="translate(30,61)"/>
<path d="M0 0 C16.5 0 33 0 50 0 C65.27988329 15.27988329 65.27988329 15.27988329 65.99697495 24.68401337 C65.9799062 25.33674477 65.96283745 25.98947617 65.94525146 26.6619873 C65.93300285 27.41439194 65.92075424 28.16679657 65.90813446 28.94200134 C65.89204384 29.7139534 65.87595322 30.48590546 65.859375 31.28125 C65.86884137 32.90924907 65.88245803 34.53722865 65.89996338 36.16516113 C65.9204476 39.55557087 65.89117044 42.94077027 65.82519531 46.33056641 C65.74536847 50.63765218 65.79139029 54.93253465 65.87520981 59.23917389 C65.92626067 62.59475683 65.90950471 65.94753109 65.87342072 69.3032074 C65.86420469 70.88815326 65.87510436 72.4733702 65.90813446 74.05799866 C65.92038307 74.81040329 65.93263168 75.56280792 65.94525146 76.3380127 C65.96232021 76.99074409 65.97938896 77.64347549 65.99697495 78.31598663 C64.94519345 92.10932804 61.64848471 91.35151529 50 103 C33.5 103 17 103 0 103 C0 69.01 0 35.02 0 0 Z M21 21 C21 41.46 21 61.92 21 83 C28.59 83 36.18 83 44 83 C44 62.54 44 42.08 44 21 C36.41 21 28.82 21 21 21 Z " fill="#FFFFFF" transform="translate(494,61)"/>
<path d="M0 0 C0.76704254 0.02027252 1.53408508 0.04054504 2.32437134 0.06143188 C11.61735547 0.35036882 20.24153475 1.25823423 27.1875 8.0625 C32.49872163 14.10894807 33.6224324 20.41958523 33.4375 28.3125 C32.9734375 33.0459375 32.9734375 33.0459375 32.5 37.875 C25.57 37.875 18.64 37.875 11.5 37.875 C11.5 32.925 11.5 27.975 11.5 22.875 C3.91 22.875 -3.68 22.875 -11.5 22.875 C-11.5 43.335 -11.5 63.795 -11.5 84.875 C-3.91 84.875 3.68 84.875 11.5 84.875 C11.5 77.945 11.5 71.015 11.5 63.875 C7.87 63.875 4.24 63.875 0.5 63.875 C0.5 57.275 0.5 50.675 0.5 43.875 C11.06 43.875 21.62 43.875 32.5 43.875 C32.68408265 50.4431711 32.84315906 57.00234519 32.93945312 63.57104492 C32.97959786 65.80312471 33.0341282 68.03499525 33.10351562 70.26635742 C33.20096537 73.48148232 33.24601605 76.69382023 33.28125 79.91015625 C33.34318542 81.39806419 33.34318542 81.39806419 33.40637207 82.91603088 C33.41077619 89.77056523 33.41077619 89.77056523 30.76780701 92.97550964 C28.63256836 94.81933594 28.63256836 94.81933594 26.50596619 96.35272217 C24.39951304 97.95125706 23.11339044 99.57998853 21.59765625 101.73046875 C17.03819704 106.32604248 10.86926538 106.0772357 4.77148438 106.17382812 C3.97572998 106.17326416 3.17997559 106.1727002 2.36010742 106.17211914 C-0.0404598 106.18736007 -2.41792446 106.31402901 -4.81445312 106.44726562 C-12.94235934 106.67965702 -20.1539841 105.42430986 -26.5390625 100.1015625 C-35.25204195 91.35351954 -34.45632318 78.09620205 -34.47842121 66.5595026 C-34.46273913 64.04800434 -34.4246946 61.53775291 -34.38012695 59.02661133 C-34.30594346 54.78817974 -34.36369422 50.56316105 -34.45527077 46.32551193 C-34.98196784 17.99430936 -34.98196784 17.99430936 -27.89286804 9.0763092 C-19.87787206 1.11106681 -10.9175312 -0.57573868 0 0 Z " fill="#FFFFFF" transform="translate(322.5,59.125)"/>
<path d="M0 0 C5.70124729 3.27616343 9.65459892 7.60361778 11.93603516 13.80029297 C13.39330208 21.05594829 12.66542497 27.36051684 11.93603516 34.80029297 C5.00603516 34.80029297 -1.92396484 34.80029297 -9.06396484 34.80029297 C-9.06396484 29.85029297 -9.06396484 24.90029297 -9.06396484 19.80029297 C-16.65396484 19.80029297 -24.24396484 19.80029297 -32.06396484 19.80029297 C-32.06396484 26.73029297 -32.06396484 33.66029297 -32.06396484 40.80029297 C-30.14455078 40.62626953 -28.22513672 40.45224609 -26.24755859 40.27294922 C-3.7094548 38.81251425 -3.7094548 38.81251425 4.34716797 44.54052734 C11.25927518 50.9378654 13.04381737 58.47762439 13.64697266 67.59716797 C14.01407627 77.28870339 13.87335496 89.12203037 7.24853516 96.80029297 C-1.05865354 104.43351328 -14.95358608 103.77225693 -25.54785156 103.45727539 C-34.00545079 103.00590981 -42.05886094 102.36267644 -48.37646484 96.11279297 C-53.34477112 90.30735898 -54.07864787 83.87022425 -53.93896484 76.42529297 C-53.50583984 71.66091797 -53.50583984 71.66091797 -53.06396484 66.80029297 C-46.13396484 66.80029297 -39.20396484 66.80029297 -32.06396484 66.80029297 C-32.06396484 71.75029297 -32.06396484 76.70029297 -32.06396484 81.80029297 C-24.47396484 81.80029297 -16.88396484 81.80029297 -9.06396484 81.80029297 C-9.06396484 74.87029297 -9.06396484 67.94029297 -9.06396484 60.80029297 C-11.11099609 60.83509766 -13.15802734 60.86990234 -15.26708984 60.90576172 C-17.25617377 60.92662624 -19.24526044 60.94738274 -21.234375 60.96508789 C-22.61367702 60.98014719 -23.99293137 61.0005991 -25.37207031 61.02661133 C-27.35769888 61.06311712 -29.34368103 61.0784415 -31.32958984 61.09326172 C-32.52358398 61.10897217 -33.71757813 61.12468262 -34.94775391 61.14086914 C-38.31068006 60.77332903 -39.71144484 60.19391297 -42.06396484 57.80029297 C-42.06396484 57.14029297 -42.06396484 56.48029297 -42.06396484 55.80029297 C-43.05396484 55.47029297 -44.04396484 55.14029297 -45.06396484 54.80029297 C-46.85302734 52.98779297 -46.85302734 52.98779297 -48.68896484 50.80029297 C-49.29998047 50.07841797 -49.91099609 49.35654297 -50.54052734 48.61279297 C-51.04326172 48.01466797 -51.54599609 47.41654297 -52.06396484 46.80029297 C-52.39396484 46.47029297 -52.72396484 46.14029297 -53.06396484 45.80029297 C-54.57141264 33.73861689 -56.64598522 16.66760408 -49.47412109 6.18017578 C-38.57784663 -5.71059992 -14.27099092 -5.58786051 0 0 Z " fill="#FFFFFF" transform="translate(1007.06396484375,62.19970703125)"/>
<path d="M0 0 C5.4724947 2.98168045 9.04683714 6.98726269 11.03417969 12.91455078 C12.36562748 20.29304381 11.87792078 27.50837893 11.03417969 34.91455078 C4.43417969 34.91455078 -2.16582031 34.91455078 -8.96582031 34.91455078 C-8.96582031 29.96455078 -8.96582031 25.01455078 -8.96582031 19.91455078 C-16.55582031 19.91455078 -24.14582031 19.91455078 -31.96582031 19.91455078 C-31.96582031 26.84455078 -31.96582031 33.77455078 -31.96582031 40.91455078 C-30.03480469 40.75212891 -28.10378906 40.58970703 -26.11425781 40.42236328 C-3.50327279 39.05596732 -3.50327279 39.05596732 4.08740234 44.24609375 C10.85249716 50.42161328 12.11305996 58.20846867 12.67456055 66.99902344 C13.04997132 76.8964161 13.13229475 89.15621678 6.28417969 96.97705078 C-1.91068882 104.41561179 -15.38698272 103.89079788 -25.80761719 103.57177734 C-34.16174902 103.11265648 -41.97290162 102.3753001 -48.21582031 96.22705078 C-53.22771054 90.41437983 -53.98641646 84.02028101 -53.84082031 76.53955078 C-53.40769531 71.77517578 -53.40769531 71.77517578 -52.96582031 66.91455078 C-46.03582031 66.91455078 -39.10582031 66.91455078 -31.96582031 66.91455078 C-31.96582031 71.86455078 -31.96582031 76.81455078 -31.96582031 81.91455078 C-24.37582031 81.91455078 -16.78582031 81.91455078 -8.96582031 81.91455078 C-8.96582031 74.98455078 -8.96582031 68.05455078 -8.96582031 60.91455078 C-12.02283203 61.10597656 -12.02283203 61.10597656 -15.14160156 61.30126953 C-37.91956653 62.30150517 -37.91956653 62.30150517 -43.30175781 58.60595703 C-46.07264107 56.06731668 -48.06213423 53.15217366 -49.96582031 49.91455078 C-50.47781982 49.33842041 -50.98981934 48.76229004 -51.51733398 48.16870117 C-56.75461803 40.018382 -54.44953946 23.20126745 -52.96582031 13.91455078 C-51.21984812 8.286173 -48.43236563 4.51929206 -43.57519531 1.18408203 C-31.47611245 -4.77478603 -12.56219456 -4.59758948 0 0 Z " fill="#FFFFFF" transform="translate(695.9658203125,62.08544921875)"/>
<path d="M0 0 C6.6 0 13.2 0 20 0 C20 27.39 20 54.78 20 83 C27.59 83 35.18 83 43 83 C43 55.61 43 28.22 43 0 C49.93 0 56.86 0 64 0 C64.31761433 11.36221636 64.57386357 22.72143764 64.72537041 34.0871067 C64.79812653 39.36607721 64.89660992 44.64182803 65.05615234 49.91894531 C65.20945196 55.02211939 65.29221211 60.12221951 65.3282814 65.22751999 C65.35394593 67.16461949 65.40406854 69.10156988 65.48022079 71.03734207 C65.83601037 80.46541338 65.86104854 88.00468967 59.32099342 95.32592583 C52.95942431 101.67432994 47.78443646 104.4807848 38.74060059 105.05651855 C38.06887817 105.02562134 37.39715576 104.99472412 36.70507812 104.96289062 C32.91502053 104.82757419 29.18973702 104.90514515 25.40319824 105.11364746 C14.9062801 104.47034457 9.06753256 100.23657907 2.13035583 92.53636169 C-3.6743997 85.03736224 -2.87722979 76.58325302 -2.5 67.5390625 C-2.47449438 65.61240992 -2.4555703 63.68566017 -2.44287109 61.75888062 C-2.39175726 56.73567424 -2.24977809 51.71912792 -2.08825684 46.69842529 C-1.94070757 41.56022108 -1.8859534 36.42103061 -1.8203125 31.28125 C-1.70957856 23.80679969 -1.57121365 16.33392524 -1.3515625 8.86181641 C-1.3315921 8.0754631 -1.3116217 7.2891098 -1.29104614 6.47892761 C-1.11739225 1.11739225 -1.11739225 1.11739225 0 0 Z " fill="#FFFFFF" transform="translate(569,61)"/>
<path d="M0 0 C6.93 0 13.86 0 21 0 C21.33 12.54 21.66 25.08 22 38 C24.145 34.143125 26.29 30.28625 28.5 26.3125 C29.81181132 24.01709032 31.12519705 21.72257823 32.44140625 19.4296875 C34.4872443 15.82419262 36.38374415 12.30250155 37.90234375 8.4453125 C39.60277286 4.55985362 40.53440406 2.48023232 44 0 C51.57328838 -1.48794363 59.37630509 -0.79257163 67 0 C65.54731989 3.90071511 63.72731915 7.4074867 61.65625 11.015625 C61.16764748 11.8690876 61.16764748 11.8690876 60.66917419 12.73979187 C59.97419479 13.95244708 59.27769862 15.1642341 58.57980347 16.37521362 C57.49257319 18.26289464 56.41096175 20.1537055 55.33032227 22.04516602 C52.17784644 27.5521385 49.00376936 33.04089537 45.68359375 38.44921875 C45.21179688 39.22297852 44.74 39.99673828 44.25390625 40.79394531 C43.4009582 42.18283328 42.53575926 43.56430129 41.65625 44.93652344 C39.51083916 48.38492115 39.51083916 48.38492115 39.20385742 52.32983398 C40.15354009 55.51495492 41.54259175 58.06896335 43.2109375 60.9453125 C43.69749313 61.79084435 43.69749313 61.79084435 44.19387817 62.65345764 C45.24771521 64.48117445 46.3112732 66.30302462 47.375 68.125 C48.10156822 69.38153779 48.82747605 70.63845766 49.55273438 71.89575195 C51.69329112 75.60215265 53.84584752 79.30149028 56 83 C57.68660383 85.9010125 59.37267969 88.80232578 61.05712891 91.70458984 C62.00185309 93.33028272 62.94934109 94.95437337 63.89990234 96.57666016 C67 101.8912854 67 101.8912854 67 103 C63.29302295 103.26260373 59.58843642 103.42156838 55.875 103.5625 C54.82828125 103.63791016 53.7815625 103.71332031 52.703125 103.79101562 C45.15482971 104.00599872 45.15482971 104.00599872 42.17382812 101.40917969 C40.54171978 99.02203057 39.27668472 96.59489686 38 94 C36.81309239 91.91595649 35.62005025 89.83539839 34.421875 87.7578125 C33.19415321 85.54896261 31.97024602 83.33798854 30.75 81.125 C29.51666468 78.89786143 28.28233608 76.67127255 27.046875 74.4453125 C26.50901367 73.47094238 25.97115234 72.49657227 25.41699219 71.49267578 C24.35137938 69.61812259 23.19608082 67.79412123 22 66 C21.67 78.21 21.34 90.42 21 103 C14.07 103 7.14 103 0 103 C0 69.01 0 35.02 0 0 Z " fill="#FFFFFF" transform="translate(104,61)"/>
<path d="M0 0 C17.49 0 34.98 0 53 0 C53 6.93 53 13.86 53 21 C42.44 21 31.88 21 21 21 C21 27.93 21 34.86 21 42 C29.58 42 38.16 42 47 42 C47 48.6 47 55.2 47 62 C38.42 62 29.84 62 21 62 C21 68.93 21 75.86 21 83 C31.56 83 42.12 83 53 83 C53 89.6 53 96.2 53 103 C35.51 103 18.02 103 0 103 C0 69.01 0 35.02 0 0 Z " fill="#FFFFFF" transform="translate(891,61)"/>
<path d="M0 0 C1.02814316 0.00222061 2.05628632 0.00444122 3.11558533 0.00672913 C4.85727745 0.00684242 4.85727745 0.00684242 6.63415527 0.00695801 C8.52943214 0.01469994 8.52943214 0.01469994 10.46299744 0.02259827 C12.39193092 0.02472069 12.39193092 0.02472069 14.35983276 0.02688599 C17.78427561 0.03071034 21.20867628 0.0405399 24.63310242 0.05158997 C28.12522308 0.06180587 31.61735053 0.06638399 35.10948181 0.07142639 C41.96562072 0.08216225 48.82172459 0.09975838 55.67784119 0.12025452 C55.67784119 7.05025452 55.67784119 13.98025452 55.67784119 21.12025452 C49.40784119 21.12025452 43.13784119 21.12025452 36.67784119 21.12025452 C36.67784119 48.18025452 36.67784119 75.24025452 36.67784119 103.12025452 C29.74784119 103.12025452 22.81784119 103.12025452 15.67784119 103.12025452 C15.67784119 76.06025452 15.67784119 49.00025452 15.67784119 21.12025452 C9.73784119 21.12025452 3.79784119 21.12025452 -2.32215881 21.12025452 C-3.87822632 19.56418701 -3.4518665 18.0606808 -3.45497131 15.90150452 C-3.45626038 15.05201233 -3.45754944 14.20252014 -3.45887756 13.32728577 C-3.45501038 12.43396545 -3.45114319 11.54064514 -3.44715881 10.62025452 C-3.451026 9.7269342 -3.45489319 8.83361389 -3.45887756 7.91322327 C-3.4575885 7.06373108 -3.45629944 6.21423889 -3.45497131 5.33900452 C-3.45384338 4.55460999 -3.45271545 3.77021545 -3.45155334 2.96205139 C-3.2546885 0.1598846 -2.80621207 0.14532153 0 0 Z " fill="#FFFFFF" transform="translate(720.3221588134766,60.87974548339844)"/>
<path d="M0 0 C6.93 0 13.86 0 21 0 C21 33.99 21 67.98 21 103 C14.07 103 7.14 103 0 103 C0 69.01 0 35.02 0 0 Z " fill="#FFFFFF" transform="translate(860,61)"/>
<path d="M0 0 C6.6 0 13.2 0 20 0 C21.96428367 1.96428367 21.12023917 4.98297163 21.12442017 7.59747314 C21.12082489 8.5476532 21.11722961 9.49783325 21.11352539 10.47680664 C21.11367142 11.47181686 21.11381744 12.46682709 21.1139679 13.49198914 C21.11326831 16.79806662 21.10547379 20.10408854 21.09765625 23.41015625 C21.09579223 25.69559193 21.09436825 27.98102801 21.09336853 30.26646423 C21.08954207 36.29498387 21.0797107 42.32347959 21.06866455 48.35198975 C21.05845317 54.49832841 21.0538715 60.64467093 21.04882812 66.79101562 C21.03808854 78.86068931 21.02049071 90.93033893 21 103 C14.07 103 7.14 103 0 103 C0 69.01 0 35.02 0 0 Z " fill="#FFFFFF" transform="translate(181,61)"/>
<path d="M0 0 C6.6 0 13.2 0 20 0 C20 33.99 20 67.98 20 103 C13.4 103 6.8 103 0 103 C0 69.01 0 35.02 0 0 Z " fill="#FFFFFF" transform="translate(385,61)"/>
<path d="M0 0 C3.01679419 3.77099274 5.44661842 7.21337543 7.890625 11.32421875 C8.24010193 11.91169388 8.58957886 12.49916901 8.949646 13.10444641 C9.68089806 14.33616307 10.41022383 15.56902522 11.13769531 16.80297852 C12.25496553 18.69591285 13.38098836 20.58344401 14.5078125 22.47070312 C15.21927959 23.67156139 15.9302356 24.87272264 16.640625 26.07421875 C17.28547852 27.16307373 17.93033203 28.25192871 18.59472656 29.3737793 C20 32 20 32 20 34 C12.08 38.455 12.08 38.455 4 43 C0.98320581 39.22900726 -1.44661842 35.78662457 -3.890625 31.67578125 C-4.24010193 31.08830612 -4.58957886 30.50083099 -4.949646 29.89555359 C-5.68089806 28.66383693 -6.41022383 27.43097478 -7.13769531 26.19702148 C-8.25496553 24.30408715 -9.38098836 22.41655599 -10.5078125 20.52929688 C-11.21927959 19.32843861 -11.9302356 18.12727736 -12.640625 16.92578125 C-13.28547852 15.83692627 -13.93033203 14.74807129 -14.59472656 13.6262207 C-16 11 -16 11 -16 9 C-10.72 6.03 -5.44 3.06 0 0 Z " fill="#FFFFFF" transform="translate(83,18)"/>
</svg>
