<?xml version="1.0" encoding="UTF-8"?>
<svg version="1.1" xmlns="http://www.w3.org/2000/svg" width="226" height="236">
<path d="M0 0 C6.6 0 13.2 0 20 0 C20.33 12.87 20.66 25.74 21 39 C23.145 35.16375 25.29 31.3275 27.5 27.375 C32.62110288 18.22321241 37.77442331 9.09250344 43 0 C50.59 0 58.18 0 66 0 C64.55175112 4.34474663 63.41967407 7.30399545 61.1640625 11.09765625 C60.59905029 12.05365723 60.03403809 13.0096582 59.4519043 13.99462891 C58.84902588 15.00702637 58.24614746 16.01942383 57.625 17.0625 C57.01245361 18.11872559 56.39990723 19.17495117 55.76879883 20.26318359 C52.70523872 25.53268039 49.57016786 30.70083313 46.16015625 35.75390625 C39.9955177 44.46588304 39.9955177 44.46588304 38.32421875 54.57421875 C39.78043634 57.61503583 41.45281046 60.19840596 43.48730469 62.88037109 C45.99891352 66.3997042 48.04819153 70.181246 50.18408203 73.9362793 C51.92794556 76.99847364 53.70589941 80.03733242 55.5 83.0703125 C56.06847656 84.03485352 56.63695312 84.99939453 57.22265625 85.99316406 C58.47548802 88.11265254 59.73381885 90.22889526 60.99609375 92.34277344 C61.63675781 93.42333008 62.27742188 94.50388672 62.9375 95.6171875 C63.52402344 96.60058105 64.11054688 97.58397461 64.71484375 98.59716797 C66 101 66 101 66 103 C58.41 103 50.82 103 43 103 C41.37191406 100.14214844 41.37191406 100.14214844 39.7109375 97.2265625 C38.63877738 95.34636374 37.56623243 93.46638499 36.49365234 91.58642578 C35.75822539 90.29694081 35.02318784 89.00723366 34.28857422 87.71728516 C33.2220969 85.84476632 32.15414027 83.97309745 31.0859375 82.1015625 C30.1276001 80.42054443 30.1276001 80.42054443 29.14990234 78.70556641 C26.48253799 74.10810375 23.73465483 69.55775804 21 65 C20.67 77.54 20.34 90.08 20 103 C13.4 103 6.8 103 0 103 C0 69.01 0 35.02 0 0 Z " fill="#000000" transform="translate(76,66)"/>
<path d="M0 0 C4 5 4 5 5.04296875 8.078125 C6.40619038 11.85606343 7.56160211 14.82172847 11 17 C19.12753563 18.89279235 27.72184933 18.32196248 36 18 C36 22.62 36 27.24 36 32 C22.8 32 9.6 32 -4 32 C-5.98 28.57625 -7.96 25.1525 -10 21.625 C-10.62648437 20.54686035 -11.25296875 19.4687207 -11.8984375 18.35791016 C-12.38570312 17.51019043 -12.87296875 16.6624707 -13.375 15.7890625 C-13.87773437 14.91975098 -14.38046875 14.05043945 -14.8984375 13.15478516 C-16 11 -16 11 -16 9 C-10.72 6.03 -5.44 3.06 0 0 Z " fill="#000000" transform="translate(144,172)"/>
<path d="M0 0 C2.94011659 2.59375747 4.64032023 5.59201407 6.57421875 8.98046875 C6.90291458 9.55332108 7.23161041 10.1261734 7.57026672 10.71638489 C8.6138625 12.53754904 9.65075263 14.36243022 10.6875 16.1875 C11.39604448 17.42668392 12.10502413 18.66561912 12.81445312 19.90429688 C14.54801825 22.93333358 16.27559206 25.96573875 18 29 C15.27347875 31.84917449 12.40078087 33.73287017 9 35.75 C7.948125 36.38421875 6.89625 37.0184375 5.8125 37.671875 C3 39 3 39 0 38 C-1.38525576 35.94520084 -2.60151782 33.94051529 -3.79296875 31.77734375 C-4.14386063 31.15726944 -4.4947525 30.53719513 -4.85627747 29.89833069 C-5.97536641 27.91612949 -7.08151003 25.92703414 -8.1875 23.9375 C-8.94382005 22.59262543 -9.70097155 21.24821808 -10.45898438 19.90429688 C-12.31568197 16.60820912 -14.16080129 13.30588148 -16 10 C-13.15971878 6.98103791 -9.95994876 5.20537969 -6.3125 3.3125 C-5.70599609 2.99216797 -5.09949219 2.67183594 -4.47460938 2.34179688 C-2.98565434 1.55628516 -1.49316953 0.77747058 0 0 Z " fill="#000000" transform="translate(63,32)"/>
</svg>
